<?xml version="1.0" encoding="UTF-8"?>
<svg xmlns="http://www.w3.org/2000/svg" height="16px" viewBox="0 0 16 16" width="16px"><g fill="#241f31"><path d="m 6.5 4.992188 h 2 c 0.277344 0 0.5 -0.222657 0.5 -0.5 c 0 -0.277344 -0.222656 -0.5 -0.5 -0.5 h -2 c -0.277344 0 -0.5 0.222656 -0.5 0.5 c 0 0.277343 0.222656 0.5 0.5 0.5 z m 0 2 h 2 c 0.277344 0 0.5 -0.222657 0.5 -0.5 c 0 -0.277344 -0.222656 -0.5 -0.5 -0.5 h -2 c -0.277344 0 -0.5 0.222656 -0.5 0.5 c 0 0.277343 0.222656 0.5 0.5 0.5 z m 0 2 h 2 c 0.277344 0 0.5 -0.222657 0.5 -0.5 c 0 -0.277344 -0.222656 -0.5 -0.5 -0.5 h -2 c -0.277344 0 -0.5 0.222656 -0.5 0.5 c 0 0.277343 0.222656 0.5 0.5 0.5 z m 0 0"/><path d="m 11 5.992188 h 5 v -2.96875 c 0 -1.65625 -1.34375 -3.0000005 -3 -3.0000005 s -3 1.3437505 -3 3.0000005 v 9.96875 c 0 0.5625 -0.4375 1 -1 1 s -1 -0.4375 -1 -1 v -3 h -8 v 3 c 0 1.65625 1.34375 3 3 3 h 6 v -2 h -6 c -0.5625 0 -1 -0.4375 -1 -1 v -2 l -1 1 h 6 l -1 -1 v 2 c 0 1.65625 1.34375 3 3 3 s 3 -1.34375 3 -3 v -9.96875 c 0 -0.5625 0.4375 -1 1 -1 s 1 0.4375 1 1 v 1.96875 l 1 -1 h -4 z m 0 0"/><path d="m 5 10.992188 v -8 c 0 -0.5625 0.4375 -1 1 -1 h 7 c 0.550781 0 1 -0.449219 1 -1 c 0 -0.550782 -0.449219 -1.0000005 -1 -1.0000005 h -7 c -1.65625 0 -3 1.3437505 -3 3.0000005 v 8 c 0 0.550781 0.449219 1 1 1 s 1 -0.449219 1 -1 z m 0 0"/></g></svg>
