<?xml version="1.0" encoding="UTF-8" standalone="no"?>
<svg
  width="100%"
  height="100%"
  viewBox="0 0 1024 1024"
  version="1.1"
  xml:space="preserve"
  style="fill-rule:evenodd;clip-rule:evenodd;stroke-linejoin:round;stroke-miterlimit:2;"
  id="svg12"
  sodipodi:docname="com.wittara.studio-symbolic.svg"
  inkscape:version="1.4.3 (0d15f75042, 2025-12-25)"
  xmlns:inkscape="http://www.inkscape.org/namespaces/inkscape"
  xmlns:sodipodi="http://sodipodi.sourceforge.net/DTD/sodipodi-0.dtd"
  xmlns="http://www.w3.org/2000/svg"
  xmlns:svg="http://www.w3.org/2000/svg">
  <defs id="defs12"></defs>
  <sodipodi:namedview
    id="namedview12"
    pagecolor="#ffffff"
    bordercolor="#000000"
    borderopacity="0.25"
    inkscape:showpageshadow="2"
    inkscape:pageopacity="0.0"
    inkscape:pagecheckerboard="0"
    inkscape:deskcolor="#d1d1d1"
    inkscape:zoom="0.78125"
    inkscape:cx="512"
    inkscape:cy="511.36"
    inkscape:window-width="1920"
    inkscape:window-height="1019"
    inkscape:window-x="0"
    inkscape:window-y="0"
    inkscape:window-maximized="1"
    inkscape:current-layer="g12" />
  <g
    transform="matrix(1,0,0,1,-50,-50)"
    id="g12">
    <g
      id="g13"
      transform="matrix(1.2138554,0,0,1.2138554,-117.99307,-120.18675)">
      <g
        transform="matrix(0.874777,0,-0.096241,0.763638,678.18792,129.31888)"
        id="g2">
        <path
          d="m 232.436,111.853 c 16.404,0 32.907,8.074 45.308,22.168 12.401,14.095 19.505,32.85 19.505,51.495 0,176.405 0,620.158 0,778.552 0,32.737 -21.602,57.289 -50.406,57.289 H 161.028 V 111.853 Z"
          id="path2"
          style="fill:#ffffff;fill-opacity:1" />
      </g>
      <g
        transform="matrix(0.734093,0,-0.096241,0.763638,520.00781,129.31888)"
        id="g3">
        <path
          d="m 220.015,111.853 c 19.548,0 39.213,8.074 53.991,22.168 14.777,14.095 23.243,32.85 23.243,51.495 0,216.526 0,835.841 0,835.841 h -58.987 c -19.549,0 -39.213,-8.074 -53.991,-22.169 -14.778,-14.094 -23.243,-32.849 -23.243,-51.494 0,-216.526 0,-835.841 0,-835.841 z"
          id="path3"
          style="fill:#ffffff;fill-opacity:1" />
      </g>
      <g
        transform="matrix(0.734093,0,-0.096241,0.763638,370.00296,129.31888)"
        id="g4">
        <path
          d="m 297.249,111.853 v 852.215 c 0,32.737 -25.742,57.289 -60.066,57.289 -36.514,0 -76.155,0 -76.155,0 V 169.141 c 0,-32.736 25.742,-57.288 60.066,-57.288 36.513,0 76.155,0 76.155,0 z"
          id="path4"
          style="fill:#ffffff;fill-opacity:1" />
      </g>
      <g
        transform="matrix(0.875047,0,-0.049168,0.390131,99.228962,510.80299)"
        id="g5">
        <path
          d="m 232.456,111.853 c 16.399,0 32.896,15.804 45.294,43.392 12.397,27.588 19.499,64.3 19.499,100.795 v 765.317 h -71.428 c -16.4,0 -32.897,-15.805 -45.294,-43.393 -12.397,-27.588 -19.499,-64.3 -19.499,-100.794 V 111.853 Z"
          id="path5"
          style="fill:#ffffff;fill-opacity:1" />
      </g>
      <g
        transform="matrix(0.807503,0,-0.002095,0.016624,502.02923,892.2871)"
        id="g6">
        <rect
          x="161.028"
          y="111.853"
          width="136.22099"
          height="909.505"
          id="rect5"
          style="fill:#ffffff;fill-opacity:1" />
      </g>
      <g
        transform="matrix(0.440457,0,-0.002095,0.016624,687.75965,212.87434)"
        id="g7">
        <rect
          x="161.028"
          y="111.853"
          width="136.22099"
          height="909.505"
          id="rect6"
          style="fill:#ffffff;fill-opacity:1" />
      </g>
      <g
        transform="matrix(0.499185,0,-0.002095,0.016624,488.29841,212.87434)"
        id="g8">
        <rect
          x="161.028"
          y="111.853"
          width="136.22099"
          height="909.505"
          id="rect7"
          style="fill:#ffffff;fill-opacity:1" />
      </g>
      <g
        transform="matrix(0.807503,0,-0.002095,0.016624,162.02615,892.2871)"
        id="g9">
        <rect
          x="161.028"
          y="111.853"
          width="136.22099"
          height="909.505"
          id="rect8"
          style="fill:#ffffff;fill-opacity:1" />
      </g>
      <g
        transform="matrix(0.440457,0,-0.002095,0.016624,113.94523,552.58072)"
        id="g10">
        <rect
          x="161.028"
          y="111.853"
          width="136.22099"
          height="909.505"
          id="rect9"
          style="fill:#ffffff;fill-opacity:1" />
      </g>
    </g>
    <g
      id="g11">
      <rect
        x="50"
        y="50"
        width="1024"
        height="1024"
        style="fill:#ffffff;fill-opacity:0"
        id="rect10" />
    </g>
  </g>
</svg>