<?xml version="1.0" encoding="UTF-8" standalone="no"?><!DOCTYPE svg PUBLIC "-//W3C//DTD SVG 1.1//EN" "http://www.w3.org/Graphics/SVG/1.1/DTD/svg11.dtd"><svg width="100%" height="100%" viewBox="0 0 4267 4267" version="1.1" xmlns="http://www.w3.org/2000/svg" xmlns:xlink="http://www.w3.org/1999/xlink" xml:space="preserve" xmlns:serif="http://www.serif.com/" style="fill-rule:evenodd;clip-rule:evenodd;stroke-linejoin:round;stroke-miterlimit:2;"><g id="Icon"><path d="M4266.667,746.667l0,2773.333c0,412.097 -334.57,746.667 -746.667,746.667l-2773.333,0c-412.097,0 -746.667,-334.57 -746.667,-746.667l0,-2773.333c0,-412.097 334.57,-746.667 746.667,-746.667l2773.333,0c412.097,0 746.667,334.57 746.667,746.667Z" style="fill:#e62d42;"/><path d="M3419.803,686.391c59.793,0 116.704,25.691 156.253,70.537c39.549,44.846 57.922,104.522 50.445,163.846c-70.739,561.29 -248.686,1973.235 -312.203,2477.218c-13.128,104.163 -101.711,182.283 -206.698,182.283c-141.39,0 -312.788,0 -312.788,0l364.715,-2893.885l260.276,0Z"/><path d="M2586.477,686.391c59.793,-0 116.704,25.691 156.253,70.537c39.549,44.846 57.922,104.523 50.445,163.847c-86.828,688.949 -335.176,2659.502 -335.176,2659.502l-180.425,-0c-59.793,0 -116.704,-25.691 -156.253,-70.537c-39.549,-44.846 -57.922,-104.523 -50.445,-163.847c86.828,-688.949 335.176,-2659.502 335.176,-2659.502l180.425,-0Z"/><path d="M2197.694,686.391c-0,0 -261.71,2076.571 -341.742,2711.602c-13.128,104.163 -101.711,182.283 -206.698,182.283c-111.685,0 -232.938,0 -232.938,0c-0,-0 261.71,-2076.571 341.742,-2711.602c13.128,-104.163 101.711,-182.283 206.698,-182.283c111.685,-0 232.938,-0 232.938,-0Z"/><path d="M1029.746,2101.834c59.793,-0 116.704,25.691 156.253,70.537c39.549,44.846 57.922,104.522 50.445,163.847c-52.544,416.919 -156.788,1244.058 -156.788,1244.058l-260.429,-0c-59.793,0 -116.704,-25.691 -156.253,-70.537c-39.549,-44.846 -57.922,-104.522 -50.445,-163.847c52.544,-416.919 156.788,-1244.058 156.788,-1244.058l260.429,0Z"/><path d="M2882.602,3517.277l-7.94,62.999l-416.663,0l7.94,-62.999l416.663,0Z"/><path d="M3160.211,686.391l-7.94,62.999l-208.331,0l7.94,-62.999l208.331,0Z"/><path d="M2406.026,686.391l-7.94,62.999l-208.331,0l7.94,-62.999l208.331,0Z"/><path d="M1424.255,3517.277l-7.94,62.999l-416.663,0l7.94,-62.999l416.663,0Z"/><path d="M769.317,2101.834l-7.94,62.999l-208.331,0l7.94,-62.999l208.331,0Z"/></g></svg>