<?xml version="1.0" encoding="UTF-8" standalone="no"?>
<!DOCTYPE svg PUBLIC "-//W3C//DTD SVG 1.1//EN" "http://www.w3.org/Graphics/SVG/1.1/DTD/svg11.dtd">
<svg width="100%" height="100%" viewBox="0 0 1024 1024" version="1.1" xmlns="http://www.w3.org/2000/svg" xmlns:xlink="http://www.w3.org/1999/xlink" xml:space="preserve" xmlns:serif="http://www.serif.com/" style="fill-rule:evenodd;clip-rule:evenodd;stroke-linejoin:round;stroke-miterlimit:2;">
    <g transform="matrix(1,0,0,1,-50,-50)">
        <g id="Icon" transform="matrix(1,0,0,1,50,50)">
            <g transform="matrix(1.949644,0,0,1.497262,-886.181834,-352.507539)">
                <path d="M979.76,355.12L979.76,799.665C979.76,865.721 938.574,919.35 887.845,919.35L546.45,919.35C495.721,919.35 454.535,865.721 454.535,799.665L454.535,355.12C454.535,289.064 495.721,235.435 546.45,235.435L887.845,235.435C938.574,235.435 979.76,289.064 979.76,355.12Z" style="fill:rgb(230,45,66);"/>
            </g>
            <g transform="matrix(0.874777,0,-0.096241,0.763638,628.187918,79.318885)">
                <path d="M232.436,111.853C248.84,111.853 265.343,119.927 277.744,134.021C290.145,148.116 297.249,166.871 297.249,185.516C297.249,361.921 297.249,805.674 297.249,964.068C297.249,996.805 275.647,1021.357 246.843,1021.357L161.028,1021.357L161.028,111.853L232.436,111.853Z"/>
            </g>
            <g transform="matrix(0.734093,0,-0.096241,0.763638,470.007806,79.318885)">
                <path d="M220.015,111.853C239.563,111.853 259.228,119.927 274.006,134.021C288.783,148.116 297.249,166.871 297.249,185.516C297.249,402.042 297.249,1021.357 297.249,1021.357L238.262,1021.357C218.713,1021.357 199.049,1013.283 184.271,999.188C169.493,985.094 161.028,966.339 161.028,947.694C161.028,731.168 161.028,111.853 161.028,111.853L220.015,111.853Z"/>
            </g>
            <g transform="matrix(0.734093,0,-0.096241,0.763638,320.002961,79.318885)">
                <path d="M297.249,111.853L297.249,964.068C297.249,996.805 271.507,1021.357 237.183,1021.357C200.669,1021.357 161.028,1021.357 161.028,1021.357L161.028,169.141C161.028,136.405 186.77,111.853 221.094,111.853C257.607,111.853 297.249,111.853 297.249,111.853Z"/>
            </g>
            <g transform="matrix(0.875047,0,-0.049168,0.390131,49.228962,460.802994)">
                <path d="M232.456,111.853C248.855,111.853 265.352,127.657 277.75,155.245C290.147,182.833 297.249,219.545 297.249,256.04L297.249,1021.357L225.821,1021.357C209.421,1021.357 192.924,1005.552 180.527,977.964C168.13,950.376 161.028,913.664 161.028,877.17L161.028,111.853L232.456,111.853Z"/>
            </g>
            <g transform="matrix(0.734093,0,-0.002095,0.016624,473.850272,842.287103)">
                <rect x="161.028" y="111.853" width="136.221" height="909.505"/>
            </g>
            <g transform="matrix(0.367047,0,-0.002095,0.016624,649.580684,162.874345)">
                <rect x="161.028" y="111.853" width="136.221" height="909.505"/>
            </g>
            <g transform="matrix(0.367047,0,-0.002095,0.016624,468.576279,162.874345)">
                <rect x="161.028" y="111.853" width="136.221" height="909.505"/>
            </g>
            <g transform="matrix(0.734093,0,-0.002095,0.016624,123.847189,842.287103)">
                <rect x="161.028" y="111.853" width="136.221" height="909.505"/>
            </g>
            <g transform="matrix(0.367047,0,-0.002095,0.016624,75.766271,502.580724)">
                <rect x="161.028" y="111.853" width="136.221" height="909.505"/>
            </g>
        </g>
    </g>
</svg>
